<svg aria-hidden="true" style="position: absolute; width: 0; height: 0; overflow: hidden;" version="1.1" xmlns="http://www.w3.org/2000/svg" xmlns:xlink="http://www.w3.org/1999/xlink">
<defs>
<symbol id="icon-search" viewBox="0 0 32 32">
<path d="M30.786 26.636c0.531 0.531 0.859 1.264 0.859 2.074 0 1.62-1.313 2.933-2.933 2.933-0.81 0-1.544-0.328-2.075-0.86l-8.597-8.596c-1.701 1.026-3.755 1.633-5.95 1.634h-0c-6.48 0-11.733-5.253-11.733-11.733s5.253-11.733 11.733-11.733c6.48 0 11.733 5.253 11.733 11.733v0c-0.001 2.196-0.608 4.249-1.663 6.003l0.029-0.053 8.597 8.597zM12.089 3.287c-4.86 0.001-8.8 3.941-8.8 8.801s3.94 8.801 8.801 8.801c0 0 0.001 0 0.001 0h-0c4.86-0 8.799-3.94 8.799-8.8s-3.94-8.8-8.8-8.8c-0 0-0.001 0-0.001 0h0z"></path>
</symbol>
<symbol id="icon-shoping-cart" viewBox="0 0 38 32">
<path d="M37.815 7.814h0.002l-5.28 11.733c-0.266 0.582-0.824 0.988-1.481 1.034l-0.006 0-15.206 1.013 0.879 2.509h16.557c1.944 0 3.52 1.576 3.52 3.52s-1.576 3.52-3.52 3.52c-1.943 0-3.519-1.575-3.52-3.518v-0h-16.427c-0.001 1.943-1.577 3.518-3.52 3.518s-3.52-1.576-3.52-3.52 1.576-3.52 3.52-3.52h3.181l-6.775-19.358h-4.032c-0.972 0-1.76-0.788-1.76-1.76s0.788-1.76 1.76-1.76v0h5.28c0.768 0 1.414 0.495 1.655 1.18l0.006-0.002 1.024 2.929h26.061c0.971 0.002 1.757 0.789 1.757 1.76 0 0.261-0.057 0.509-0.159 0.732l0.005-0.011zM11.386 8.853l3.253 9.295 15.123-1.009 3.729-8.286h-22.106z"></path>
</symbol>
</defs>
</svg>
